<svg width="180" height="180" viewBox="0 0 180 180" xmlns="http://www.w3.org/2000/svg"><title>logo</title><g transform="translate(-30 -30)" fill="none" fill-rule="evenodd"><circle fill="#FFF" cx="120" cy="120" r="90"/><path d="M120 195c-41.421 0-75-33.579-75-75s33.579-75 75-75 75 33.579 75 75-33.579 75-75 75zm0-26c27.062 0 49-21.938 49-49s-21.938-49-49-49-49 21.938-49 49 21.938 49 49 49zm.5-16c-17.95 0-32.5-14.55-32.5-32.5S102.55 88 120.5 88s32.5 14.55 32.5 32.5-14.55 32.5-32.5 32.5z" fill="#08BD77"/></g></svg>